<?xml version="1.0" encoding="utf-8"?>
<!-- Generator: Adobe Illustrator 24.0.0, SVG Export Plug-In . SVG Version: 6.00 Build 0)  -->
<svg version="1.1" id="Layer_1" xmlns="http://www.w3.org/2000/svg" xmlns:xlink="http://www.w3.org/1999/xlink" x="0px" y="0px"
	 viewBox="0 0 100 100" style="enable-background:new 0 0 100 100;" xml:space="preserve">
<path d="M93.6,50.9c0-0.1,0.1-0.2,0.1-0.2c0-0.1,0-0.1,0.1-0.2c0-0.1,0.1-0.1,0.1-0.2c0-0.1,0.1-0.3,0.1-0.5c0,0,0-0.1,0-0.1
	c0-0.2,0-0.4,0-0.6c0,0,0-0.1,0-0.1c0-0.2,0-0.3-0.1-0.5c0-0.1,0-0.1,0-0.2c0-0.2-0.1-0.3-0.2-0.4c0,0,0-0.1-0.1-0.1
	c-0.1-0.2-0.2-0.4-0.3-0.5c0,0-0.1-0.1-0.1-0.1c-0.1-0.1-0.1-0.2-0.2-0.2l-24.5-26c-1.3-1.4-3.5-1.5-4.9-0.2
	c-1.4,1.3-1.5,3.5-0.2,4.9l18.9,20.1H9.5c-1.9,0-3.5,1.6-3.5,3.5c0,1.9,1.6,3.5,3.5,3.5h73.2L63.4,74.4c-1.3,1.4-1.2,3.7,0.3,4.9
	c0.7,0.6,1.5,0.9,2.3,0.9c1,0,1.9-0.4,2.6-1.2l24.5-27.4c0,0,0,0,0,0c0.1-0.2,0.3-0.3,0.4-0.5C93.5,51.1,93.6,51,93.6,50.9z"/>
</svg>
