<?xml version="1.0" encoding="utf-8"?>
<!-- Generator: Adobe Illustrator 24.0.0, SVG Export Plug-In . SVG Version: 6.00 Build 0)  -->
<svg version="1.1" id="Layer_1" xmlns="http://www.w3.org/2000/svg" xmlns:xlink="http://www.w3.org/1999/xlink" x="0px" y="0px"
	 viewBox="0 0 100 100" style="enable-background:new 0 0 100 100;" xml:space="preserve">
<g>
	<path d="M41,70.2c-0.8,0-1.5-0.3-2.2-0.8l-10.2-8.1c-1.5-1.2-1.8-3.4-0.5-4.9c1.2-1.5,3.4-1.8,4.9-0.5l7.5,6l25.9-30.8
		c1.2-1.5,3.5-1.7,4.9-0.4c1.5,1.2,1.7,3.5,0.4,4.9L43.7,68.9C43,69.8,42,70.2,41,70.2z"/>
</g>
<g>
	<path d="M50,97.4C23.8,97.4,2.6,76.2,2.6,50C2.6,23.8,23.8,2.6,50,2.6c26.2,0,47.4,21.3,47.4,47.4C97.4,76.2,76.2,97.4,50,97.4z
		 M50,8.6C27.1,8.6,8.6,27.1,8.6,50c0,22.9,18.6,41.4,41.4,41.4c22.9,0,41.4-18.6,41.4-41.4C91.4,27.1,72.9,8.6,50,8.6z"/>
</g>
</svg>
