<svg xmlns="http://www.w3.org/2000/svg" viewBox="0 0 488.08 498.65"><defs><style>.cls-1{fill:#e3443a;}.cls-2{fill:#f7b92b;}.cls-3{fill:#40a557;}.cls-4{fill:#4087ed;}</style></defs><title>google</title><g id="Layer_2" data-name="Layer 2"><g id="Layer_1-2" data-name="Layer 1"><path class="cls-1" d="M414.23,62.34a260.24,260.24,0,0,0-35.45-26A246,246,0,0,0,255.61.07q-3-.08-5.94-.07A249.13,249.13,0,0,0,25.61,138.88l84,64.17h0a147.24,147.24,0,0,1,140-101,144.46,144.46,0,0,1,91.93,32.87l72.63-72.53h0Z"/><path class="cls-2" d="M102.15,249.31c0-2.29.17-4.56.27-6.83A148.89,148.89,0,0,1,109.63,203l-84-64.16A248.94,248.94,0,0,0,.2,242.49C.14,244.77,0,247,0,249.32s.14,4.57.19,6.85A249.14,249.14,0,0,0,25.57,359.69h0l84-64.29a148.24,148.24,0,0,1-7.14-39.24C102.32,253.88,102.15,251.62,102.15,249.31Z"/><path class="cls-3" d="M377.92,409.89l-45.33-35c-22.5,14.17-50.85,21.8-82.92,21.8a147.69,147.69,0,0,1-140-101l-84,64.16A249.19,249.19,0,0,0,249.67,498.65h0a250.31,250.31,0,0,0,66.84-9,231.06,231.06,0,0,0,95.83-53.13Z"/><path class="cls-4" d="M488.08,247.66c0-14.73-2.34-30.34-5.75-46.34H252v96H383.59c-6.69,32-24.92,61.09-51,77.53l79.76,61.65a224.26,224.26,0,0,0,42.49-54.12Q460.71,372,465.62,361C480,328.67,488.08,290.14,488.08,247.66Z"/></g></g></svg>