<?xml version="1.0" encoding="utf-8"?>
<!-- Generator: Adobe Illustrator 24.0.0, SVG Export Plug-In . SVG Version: 6.00 Build 0)  -->
<svg version="1.1" id="Layer_1" xmlns="http://www.w3.org/2000/svg" xmlns:xlink="http://www.w3.org/1999/xlink" x="0px" y="0px"
	 viewBox="0 0 100 100" style="enable-background:new 0 0 100 100;" xml:space="preserve">
<g>
	<path d="M98.8,47.2l-8.1-14.1c-0.3-0.5-1.1-0.5-1.4,0l-8.1,14.1c-0.3,0.5,0.1,1.2,0.7,1.2h5.6c0,0.5,0.1,1,0.1,1.6
		c0,20.7-16.8,37.5-37.5,37.5c-11.5,0-21.8-5.2-28.7-13.4l-2.5,4.7c7.8,8.4,18.9,13.7,31.2,13.7c23.4,0,42.5-19.1,42.5-42.5
		c0-0.5,0-1,0-1.6h5.7C98.8,48.4,99.1,47.8,98.8,47.2z"/>
	<path d="M18.8,52.8c0.3-0.5-0.1-1.2-0.7-1.2h-5.6c0-0.5-0.1-1-0.1-1.6c0-20.7,16.8-37.5,37.5-37.5c11.5,0,21.8,5.2,28.7,13.4
		l2.5-4.7C73.4,12.8,62.3,7.5,50,7.5C26.6,7.5,7.5,26.6,7.5,50c0,0.5,0,1,0,1.6H1.9c-0.6,0-1,0.7-0.7,1.2l8.1,14.1
		c0.3,0.5,1.1,0.5,1.4,0l0.2-0.3c0,0,0,0,0,0l3.3-5.7c0,0,0,0,0,0L18.8,52.8z"/>
</g>
</svg>
