<svg xmlns="http://www.w3.org/2000/svg" viewBox="0 0 3357.07 575.02"><defs><style>.cls-1,.cls-2{fill:#fff;}.cls-2{opacity:0.8;}.cls-3{fill:#333;}.cls-4{fill:#515151;}.cls-5{fill:#1a1a1a;}.cls-6{fill:#4d4d4d;}.cls-7{fill:#666;}.cls-8{fill:gray;}.cls-9{fill:#424242;}.cls-10{fill:#545454;}</style></defs><title>zap-cannon-logo</title><g id="Layer_2" data-name="Layer 2"><g id="Layer_1-2" data-name="Layer 1"><polygon class="cls-1" points="884.56 196.4 710.9 497.74 770.22 497.74 884.56 299.33 998.9 497.74 1058.22 497.74 884.56 196.4"/><polygon class="cls-1" points="735.1 196.4 509.54 196.4 534 238.85 654.07 238.85 460.33 474.83 460.33 497.74 678.55 497.74 702.89 455.5 542.1 455.5 735.1 218.26 735.1 196.4"/><path class="cls-1" d="M1269.73,221.75c-22.26-16.11-41.43-24.17-74.26-24.17H1088.66V575l50.58-49.16V238.77h42.48q72.19,0,72.19,53.16,0,27.1-19.64,42t-57.21,14.92h-12.15v40.77h21.23c39.62,0,58.87-9.32,82.12-27.95s30.3-42.59,30.3-71.87S1292,237.86,1269.73,221.75Z"/><polygon class="cls-1" points="1905.53 197.03 1731.87 497.81 1791.19 497.81 1905.53 299.76 2019.87 497.81 2079.19 497.81 1905.53 197.03"/><path class="cls-1" d="M2389.75,448.61V197h-53.2V368.45c0,3.61,0,2.45.09,5.65Z"/><path class="cls-1" d="M2338,422.65h-.07c-.1-.18-.24-.4-.36-.61l-13.78-19.32h0L2171.59,197h-64.36V497.81h53.44v-201q0-30.49-1.86-39.79h1.39a91.19,91.19,0,0,0,10,16.76l159.16,212.9h54.31Z"/><path class="cls-1" d="M2420.2,247.27V498.84h54V327.43c0-3.62,0-2.45-.09-5.65Z"/><path class="cls-1" d="M2472.76,273.23h.07c.1.18.25.4.37.6l14,19.33h0l154.62,205.68h65.38V198.07h-54.28v201q0,30.49,1.88,39.79h-1.41a90.47,90.47,0,0,0-10.15-16.76L2481.56,209.2h-55.17Z"/><path class="cls-1" d="M2886.19,200.62a148.56,148.56,0,1,0,148.56,148.56A148.56,148.56,0,0,0,2886.19,200.62Zm0,251.51a103,103,0,1,1,102.95-102.95A102.95,102.95,0,0,1,2886.19,452.13Z"/><path class="cls-1" d="M1701.43,436.05a123.57,123.57,0,0,1-59.9,15.21c-63.46,0-114.91-46.49-114.91-103.84s51.45-103.84,114.91-103.84a123.57,123.57,0,0,1,59.9,15.21V207.67a181,181,0,0,0-59.9-10.09c-91.57,0-165.81,67.09-165.81,149.84S1550,497.26,1641.53,497.26a181,181,0,0,0,59.9-10.09Z"/><path class="cls-1" d="M3302.1,390.57q0,28.57,2.4,40.56h-1q-2.88-5.06-13-18.5L3131.68,196.4h-66.49V497.74h55.21V300.21q0-31.72-1.92-41.4h1.44a94.13,94.13,0,0,0,10.32,17.44l164.42,221.49h62.41V121.66l-55,46.45Z"/><polygon class="cls-1" points="3350.52 120.3 3357.07 121.66 3357.07 120.3 3350.52 120.3"/><path class="cls-2" d="M153,10a12.65,12.65,0,0,1,8.87,3.74l121.84,126.7a5.06,5.06,0,0,1,1.3,4.2,6.65,6.65,0,0,1-3.21,4.72l-2.6,1.55,2.06,2.14,5.49-2.41a6,6,0,0,1,5.15.14,6.34,6.34,0,0,1,2.91,3.29l0,.09,8.06,44.57a17.91,17.91,0,0,1-4.32,19.44l-5.66,5.44.12.12,13.86,14.42a7,7,0,0,1-.19,9.9l-64.87,62.38a7,7,0,0,1-9.9-.2l-13.86-14.41-.11-.13-5.66,5.44a17.94,17.94,0,0,1-19.6,3.56l-44.22-9.79-.29-.13a6,6,0,0,1-3.33-3.94,6.3,6.3,0,0,1,.51-4.36l2.53-5.19-2.06-2.14-1.65,2.54a6.6,6.6,0,0,1-4.84,3,5.67,5.67,0,0,1-.71,0,5,5,0,0,1-3.43-1.49L13.39,156.54c-5.48-5.71-4.18-15.89,2.89-22.77l-2.63-8.42a10,10,0,0,1,2.62-10.19L120.42,15a10,10,0,0,1,7.26-2.79,9.9,9.9,0,0,1,3,.57l8.31,3A19.77,19.77,0,0,1,153,10m.33-10h0a28.78,28.78,0,0,0-16.07,4.5l-3.22-1.14a19.81,19.81,0,0,0-6-1.14A20.09,20.09,0,0,0,113.49,7.8L9.34,108a19.88,19.88,0,0,0-5.23,20.37l1,3.26A29.42,29.42,0,0,0,.21,144.33a23.16,23.16,0,0,0,6,19.14L128,290.17a14.81,14.81,0,0,0,7.49,4.2,16,16,0,0,0,8.58,9.52l.31.14.94.42,1,.22,43.39,9.61a28,28,0,0,0,9.22,1.89,27.71,27.71,0,0,0,18.69-6.38l7.1,7.39a17,17,0,0,0,24,.47l64.87-62.39a17,17,0,0,0,.47-24l-7.1-7.39a28,28,0,0,0,5.58-27.71l-7.91-43.74-.18-1-.39-1,0-.09a16.24,16.24,0,0,0-7.66-8.46,17.25,17.25,0,0,0-1.6-.7,14.84,14.84,0,0,0-3.91-7.65L169.09,6.82A22.71,22.71,0,0,0,153.34,0Z"/><path class="cls-1" d="M475.28,490.11a3.75,3.75,0,1,0,2.3-1.94C316.77,317.6,284.17,267,284.17,267l-10.9,10.3-11.65,11.39S310.83,323.39,475.28,490.11Z"/><path class="cls-2" d="M351.66,383.27c7.53-2.6,13-10.25,20.9-11.12,5.23-.58,10.24,2,15.41,3,2.18.41,4.42.54,6.58,1.09,6.46,1.64,11.37,6.76,15.9,11.65a34.05,34.05,0,0,0-20.67-8.9l6.16,4-18.13-6.71a5.11,5.11,0,0,0-2.29-.46,5.51,5.51,0,0,0-2.5,1.34c-6.65,5.11-15,7.32-23.15,9.4-2.55.66-5.22,1.32-7.8.77-5.15-1.09-8.45-6.6-10.14-11.17,3.34,1.42,4,5.43,8,6.93A17.5,17.5,0,0,0,351.66,383.27Z"/><path class="cls-2" d="M309.57,273.83a29.1,29.1,0,0,0-15-7.79,121.18,121.18,0,0,1,12.71,10.33,12,12,0,0,1,3.23,4.14,16.3,16.3,0,0,1,.64,4.89,27.2,27.2,0,0,0,3.64,12.11c-5-4.34-6.3-11.51-9.95-17-4.21-6.38-11.26-10.18-17.9-14-3-1.73-5.17-4-3.15-7.41s4.79-2.27,8.07-1A34.66,34.66,0,0,1,309.57,273.83Z"/><rect class="cls-3" x="212.5" y="251.99" width="100" height="30" rx="5" transform="translate(636.78 277.49) rotate(136.12)"/><path class="cls-4" d="M241.74,307.48l-20.5-21.33c-2.49,3.21-3.3,6.64-1.71,8.29l13.86,14.42C235,310.51,238.44,309.83,241.74,307.48Z"/><path class="cls-5" d="M218.28,285.93l64.87-62.38a7,7,0,0,1,9.9.19l13.86,14.42a7,7,0,0,1-.19,9.9l-64.87,62.38a7,7,0,0,1-9.9-.2l-13.86-14.41A7,7,0,0,1,218.28,285.93ZM304,245.17a3,3,0,0,0,.08-4.24l-13.86-14.42a3,3,0,0,0-4.24-.08l-64.88,62.38a3,3,0,0,0-.08,4.25l13.86,14.41a3,3,0,0,0,4.25.08Z"/><polygon class="cls-3" points="13.52 119.88 125.25 12.45 146.32 19.93 20.18 141.23 13.52 119.88"/><path class="cls-5" d="M11.81,119.45,124.87,10.72l24.24,8.61L19.47,144ZM125.62,14.17,15.23,120.32l5.66,18.15L143.53,20.53Z"/><rect x="117.91" y="197.82" width="185" height="30" transform="matrix(-0.72, 0.69, -0.69, -0.72, 509.58, 220.38)"/><path class="cls-6" d="M154.43,260.49a6.29,6.29,0,0,1,.93-1.13l51.85-49.86,51.86-49.86a5.78,5.78,0,0,1,1.16-.89l20-12c1.7-1,2.35-3.15,1.28-4.26L159.71,15.83C155.34,11.29,147,12.26,141,18L79.72,76.92,18.45,135.83c-6,5.74-7.27,14.08-2.9,18.63l121.84,126.7c1.07,1.11,3.23.55,4.31-1.11Z"/><path class="cls-7" d="M141.7,280.05l12.73-19.56a6.29,6.29,0,0,1,.93-1.13l.11-.11L28,126.67l-9.53,9.16c-6,5.74-7.27,14.08-2.9,18.63l121.84,126.7C138.46,282.27,140.62,281.71,141.7,280.05Z"/><path class="cls-8" d="M142.76,279l.1-.13L14.16,145.06c-1.05,3.83-.68,7.24,1.39,9.4l121.84,126.7C138.46,282.27,141.15,281.2,142.76,279Z"/><path class="cls-9" d="M270.53,152.61l9.74-5.82c1.7-1,2.35-3.15,1.28-4.26L159.71,15.83C155.36,11.3,147,12.25,141,18Z"/><path class="cls-3" d="M264.43,152.75,167.64,81.94s-9-9.84-21.25-3.32L93,131.59l51-47.8s5.56-6.42,12.47-2.48S257,157.47,257,157.47Z"/><path class="cls-6" d="M159,265.43a4.94,4.94,0,0,1,1-1.42l51.75-49.76,51.75-49.76a5,5,0,0,1,1.45-1l23-10.13a3,3,0,0,1,4,1.62L300,199.57a15,15,0,0,1-3.5,16.45L253.37,257.5,210.24,299a15,15,0,0,1-16.58,2.86l-44.21-9.79A3,3,0,0,1,148,288Z"/><path class="cls-7" d="M149.45,292.05l44.21,9.79A15,15,0,0,0,210.24,299l6.6-6.35a543.5,543.5,0,0,1-58-26.94L148,288A3,3,0,0,0,149.45,292.05Z"/><path class="cls-8" d="M149.45,292.05l44.21,9.79a15,15,0,0,0,13.54-.61c-18.65-5.43-37.81-12.42-57.07-17.62L148,288A3,3,0,0,0,149.45,292.05Z"/><path class="cls-9" d="M296.51,216a15,15,0,0,0,3.5-16.45L292,155a3,3,0,0,0-4-1.62l-13.76,6.06c7.49,19.32,13.25,39.39,19.38,59.37Z"/><path class="cls-2" d="M322.39,311.37c-.87,5.71,1.57,11.38,1.95,17.15.4,6.12-1.54,12.12-2.77,18.13s-1.7,12.62,1.35,18a9.54,9.54,0,0,0,4.74,4.37,26.4,26.4,0,0,0,5,.84c6.57,1,12.39,6.49,19,5.44a93.88,93.88,0,0,1-19-8,13.75,13.75,0,0,1-4.42-3.38c-2.75-3.59-1.68-8.67-.8-13.1a90.65,90.65,0,0,0,1.6-21.68c-.27-5.82-1.08-11.81.71-17.35,1-3,2.7-5.78,4-8.67a37.59,37.59,0,0,0,3.42-17.82,4.86,4.86,0,0,1,0,6.8c-2.1-9.49-11.22-15.5-19.06-20.07,5.43,4.74,10,7.43,11.07,15.07C330.56,296.57,323.72,302.57,322.39,311.37Z"/><path class="cls-2" d="M315.13,356.73c.79,1.22,1.65,2.58,1.43,4a32.51,32.51,0,0,1-3.31-22.87,14.52,14.52,0,0,0,.56-3.52,14.86,14.86,0,0,0-.48-2.86,28.67,28.67,0,0,1-.17-11.45c-.85,5.58-3.25,10.9-3.93,16.43C308.35,343.64,311.33,350.83,315.13,356.73Z"/><path class="cls-2" d="M433.49,393.11c5,3.64,9.2,8.75,10.48,14.81a10.21,10.21,0,0,1,.11,4.33,19,19,0,0,1-2.36,4.83,25.45,25.45,0,0,0-3.28,12.58c0,3.23.65,6.45.47,9.67s-1.39,6.64-4.12,8.35A16.12,16.12,0,0,0,436,432.39a27.17,27.17,0,0,1-1.93-4.31c-1-3.74,1-7.53,2.75-11s3.22-7.66,1.34-11c-1.75-3.15-9.24-3.25-8.33-6.74,1.13-4.34-6.34-8-5.74-11.25C427.3,388.72,430.79,391.14,433.49,393.11Z"/><path class="cls-2" d="M403.16,372.6c16.64,5.94,34,13.32,43.93,27.95a10.24,10.24,0,0,1,1.79,3.79c.35,2-.35,4-.94,5.86a60,60,0,0,0-2.53,22.17,9.62,9.62,0,0,0,2.53-3.92,55,55,0,0,0-6.16,15c-.83,3.37-1.34,6.84-2.53,10.1s-3.22,6.51-4.75,9.8a41.33,41.33,0,0,0,14.12,51.52c-7.49-4.71-10.95-13.77-12.83-22.42a50.88,50.88,0,0,1-1.34-10.26c-.14-14.83,9.4-27.78,18.5-39.49l-6.41,2.94c-.8-6.67,4.21-12.58,5.48-19.17,1-5.11-.31-10.49.92-15.54.56-2.29,1.61-4.43,2.14-6.72a15.53,15.53,0,0,0-6.8-16.29,10.15,10.15,0,0,1,2.62,6.62c-5.92-7.08-12.21-14.44-20.8-17.8l2.77,3.71a49.16,49.16,0,0,0-38.15-8.57c7.69.62,15.7,1.34,22.25,5.41"/><path class="cls-8" d="M253.58,160.75,154.36,83.48s-7.47-5.47-27,19.22l21.48-21.83s2.72-3.55,14.75,4.73S257,157.47,257,157.47Z"/><path class="cls-10" d="M169.7,241.41,86.1,140.79l-4.45,4.28s-5.4,4.12,2.38,13.83l69.95,99Z"/><path class="cls-5" d="M81.39,142.72,145,81.56c4-3.84,10.85-3.39,16.69,1.1l97.09,74.53L257,159.57,159.85,85c-4.56-3.5-9.93-4.06-12.78-1.32l-63.6,61.16c-2.87,2.76-2.5,8.18.86,12.89l71.05,99.46L152.93,259l-71-99.47C77.65,153.58,77.44,146.51,81.39,142.72Z"/><path class="cls-5" d="M16.37,133.67,138.91,15.84c7.15-6.88,17.46-7.82,23-2.09l121.84,126.7a5.05,5.05,0,0,1,1.3,4.19,6.65,6.65,0,0,1-3.21,4.73l-20,11.95a3.5,3.5,0,0,0-.63.48l-103.7,99.72a3.61,3.61,0,0,0-.5.61l-12.73,19.56a6.6,6.6,0,0,1-4.84,3,5,5,0,0,1-4.14-1.47L13.39,156.54C7.88,150.81,9.22,140.55,16.37,133.67ZM278.89,144.1,157.55,17.91c-3.16-3.29-9.79-2.26-14.48,2.25L20.53,138c-4.69,4.51-6,11.1-2.81,14.39L139.06,278.57a1,1,0,0,0,.12-.16l12.73-19.56a9.76,9.76,0,0,1,1.37-1.65L257,157.47a9,9,0,0,1,1.71-1.3l20-11.95Z"/><path class="cls-5" d="M158,261.85l103.51-99.53a7.79,7.79,0,0,1,2.32-1.55l23-10.12a6,6,0,0,1,8,3.23l.11.29,8.06,44.57a17.91,17.91,0,0,1-4.32,19.44l-86.27,83a17.91,17.91,0,0,1-19.6,3.56l-44.22-9.79-.29-.13a6,6,0,0,1-2.92-8.1l11-22.57h0A8.13,8.13,0,0,1,158,261.85ZM289.12,156.16l-22.93,10.1a2.27,2.27,0,0,0-.58.39l-103.5,99.53a1.88,1.88,0,0,0-.41.56h0l-11,22.51,43.9,9.72.29.13a11.93,11.93,0,0,0,13.26-2.28l86.27-83a11.93,11.93,0,0,0,2.8-13.16l-.12-.29Z"/><path class="cls-2" d="M448.22,501.58c2.11,2.26,4.8,3.87,7.08,5.95a22.77,22.77,0,0,1,6,8.83c-.87-3-3.7-4.94-6.55-6.18s-5.93-2-8.47-3.79c-3-2.13-4.95-5.47-6.77-8.7A6,6,0,0,0,441.9,500l-2.33-8.8a7.1,7.1,0,0,1-.3-3.78,9.1,9.1,0,0,1,1.94-3c3.16-4,4.64-9.9,9.57-12.18-2.75,1.28-2.93,3.19-3.3,5.77s-1.94,4.49-2.82,7.08A16.61,16.61,0,0,0,448.22,501.58Z"/></g></g></svg>